<svg width="19" height="23" viewBox="0 0 19 23" fill="none" xmlns="http://www.w3.org/2000/svg">
<path d="M3.47072 7.83497C3.363 7.65884 3.29305 7.46224 3.26532 7.25766C3.23758 7.05307 3.25265 6.84495 3.30959 6.64649C3.34832 6.48174 3.41433 6.32462 3.5049 6.18165L5.59377 3.19337V0.781258C5.59353 0.674158 5.61532 0.568154 5.65778 0.469829C5.70023 0.371504 5.76246 0.28296 5.84057 0.209694C5.91869 0.136429 6.01104 0.0800082 6.11189 0.0439363C6.21273 0.00786445 6.31991 -0.00708806 6.42677 7.56432e-06C6.62801 0.0172873 6.81521 0.110247 6.95059 0.260132C7.08598 0.410018 7.15948 0.605673 7.15627 0.807625V3.16602L7.66896 3.8086C7.89214 4.08851 8.17669 4.31335 8.50063 4.46575C8.82456 4.61815 9.1792 4.69402 9.53713 4.68751C9.8906 4.67751 10.2375 4.58982 10.5533 4.43067C10.8691 4.27151 11.146 4.04479 11.3643 3.76661L11.8438 3.16602V0.781258C11.8435 0.674158 11.8653 0.568154 11.9078 0.469829C11.9502 0.371504 12.0125 0.28296 12.0906 0.209694C12.1687 0.136429 12.261 0.0800082 12.3619 0.0439363C12.4627 0.00786445 12.5699 -0.00708806 12.6768 7.56432e-06C12.878 0.0172873 13.0652 0.110247 13.2006 0.260132C13.336 0.410018 13.4095 0.605673 13.4063 0.807625V3.19337L15.4981 6.18165C15.5886 6.32462 15.6546 6.48174 15.6934 6.64649C15.7503 6.84495 15.7654 7.05307 15.7376 7.25766C15.7099 7.46224 15.64 7.65884 15.5322 7.83497C15.5283 7.84061 15.5247 7.84648 15.5215 7.85255L14.168 9.97559C14.1325 10.0313 14.0834 10.0772 14.0253 10.1088C13.9672 10.1404 13.9021 10.1567 13.836 10.1563H5.16408C5.09846 10.1562 5.03392 10.1396 4.9764 10.1081C4.91888 10.0765 4.87025 10.0309 4.83498 9.97559L3.48146 7.85255C3.47824 7.84648 3.47465 7.84061 3.47072 7.83497ZM17.9727 20.4873C17.9686 20.4759 17.9637 20.4648 17.958 20.4541L13.9619 11.9434C13.9303 11.8761 13.8802 11.8192 13.8174 11.7794C13.7546 11.7396 13.6818 11.7186 13.6074 11.7188H5.39259C5.31826 11.7186 5.24542 11.7396 5.18262 11.7794C5.11983 11.8192 5.06969 11.8761 5.0381 11.9434L1.04201 20.4541C1.03632 20.4648 1.03142 20.4759 1.02736 20.4873C0.94217 20.6927 0.901267 20.9138 0.907325 21.1361C0.913383 21.3584 0.966265 21.5769 1.06252 21.7774C1.19082 22.0411 1.39074 22.2633 1.63942 22.4188C1.88811 22.5742 2.17551 22.6565 2.46877 22.6563H16.5313C16.8244 22.6563 17.1116 22.5739 17.36 22.4185C17.6085 22.2631 17.8083 22.0409 17.9365 21.7774C18.0329 21.577 18.086 21.3585 18.0922 21.1362C18.0984 20.9139 18.0577 20.6928 17.9727 20.4873Z" fill="white"/>
</svg>
