<svg width="6" height="19" viewBox="0 0 6 19" fill="none" xmlns="http://www.w3.org/2000/svg">
<path d="M13.5 1.75C14.1075 1.75 14.4408 1.44922 14.7994 1.13125C15.2044 0.766016 15.6389 0.375 16.5375 0.375C18.6174 0.375 20.0982 6.91484 20.6677 9.90977C18.8916 10.6918 16.4911 11.375 13.5 11.375C10.5089 11.375 8.10848 10.6918 6.33238 9.90977C6.90191 6.91484 8.38269 0.375 10.4625 0.375C11.3611 0.375 11.7957 0.766016 12.2007 1.13125C12.5593 1.44922 12.8925 1.75 13.5 1.75ZM4.68707 10.6316C6.67832 11.6844 9.6441 12.75 13.5043 12.75C17.3644 12.75 20.3302 11.6844 22.3172 10.6316C23.3635 10.0773 24.4182 9.41562 25.2746 8.58203C25.6079 8.24258 26.1268 8.18672 26.5233 8.44023C26.9241 8.69375 27.0928 9.20937 26.941 9.66484C26.3714 11.2848 25.321 12.7715 24.1524 13.9875C22.0936 16.1402 18.7144 18.25 13.5 18.25C8.28566 18.25 4.91066 16.1402 2.84769 13.9875C1.6791 12.7672 0.628632 11.2805 0.0591007 9.66055C-0.0927743 9.20508 0.0759757 8.68945 0.476757 8.43594C0.877538 8.18242 1.39223 8.24258 1.72551 8.57773C2.58613 9.41133 3.6366 10.073 4.68285 10.6273L4.68707 10.6316Z" fill="white"/>
</svg>
