<svg width="30" height="30" viewBox="0 0 30 30" fill="none" xmlns="http://www.w3.org/2000/svg">
<path fill-rule="evenodd" clip-rule="evenodd" d="M7.13378 4.84875C7.83688 4.14544 8.79055 3.75022 9.78503 3.75C10.7725 3.75 12.22 3.475 12.6625 4.63875C12.843 5.11256 13.1631 5.52035 13.5806 5.80807C13.998 6.09579 14.493 6.24987 15 6.24987C15.507 6.24987 16.0021 6.09579 16.4195 5.80807C16.8369 5.52035 17.1571 5.11256 17.3375 4.63875C17.78 3.47625 19.2288 3.75125 20.215 3.75125C21.2089 3.75147 22.162 4.14621 22.865 4.84875L27.5 9.4825C27.9687 9.95132 28.232 10.5871 28.232 11.25C28.232 11.9129 27.9687 12.5487 27.5 13.0175L25.6525 14.865C25.0025 15.515 24.095 15.7263 23.2775 15.5225L23.6175 22.3125C23.6429 22.8201 23.5649 23.3275 23.3882 23.804C23.2115 24.2805 22.9397 24.7161 22.5895 25.0844C22.2392 25.4527 21.8178 25.7459 21.3507 25.9462C20.8837 26.1466 20.3808 26.25 19.8725 26.25H10.1275C9.61931 26.25 9.11641 26.1466 8.64935 25.9462C8.1823 25.7459 7.76085 25.4527 7.4106 25.0844C7.06035 24.7161 6.78861 24.2805 6.61188 23.804C6.43515 23.3275 6.35712 22.8201 6.38253 22.3125L6.72253 15.5225C6.30361 15.6279 5.86451 15.6227 5.44819 15.5074C5.03188 15.3922 4.65262 15.1708 4.34753 14.865L2.50003 13.0175C2.03135 12.5487 1.76807 11.9129 1.76807 11.25C1.76807 10.5871 2.03135 9.95132 2.50003 9.4825L7.13378 4.84875Z" fill="white"/>
</svg>
