<svg width="32" height="32" viewBox="0 0 32 32" fill="none" xmlns="http://www.w3.org/2000/svg">
<path d="M2 18.7C2 17.21 3.21 16 4.7 16H13.34C14.264 16 15.143 16.32 15.87 16.885L14.282 18.472C14.1526 18.6014 14.0799 18.777 14.0799 18.96C14.0799 19.143 14.1526 19.3186 14.282 19.448C14.4114 19.5774 14.587 19.6501 14.77 19.6501C14.953 19.6501 15.1286 19.5774 15.258 19.448L16.898 17.808C16.9296 17.7765 16.958 17.742 16.983 17.705C17.5321 18.0498 18.1056 18.3539 18.699 18.615L17.262 20.052C17.1979 20.1161 17.1471 20.1922 17.1124 20.2759C17.0777 20.3596 17.0599 20.4494 17.0599 20.54C17.0599 20.6306 17.0777 20.7204 17.1124 20.8041C17.1471 20.8878 17.1979 20.9639 17.262 21.028C17.3261 21.0921 17.4022 21.1429 17.4859 21.1776C17.5696 21.2123 17.6594 21.2301 17.75 21.2301C17.8406 21.2301 17.9304 21.2123 18.0141 21.1776C18.0978 21.1429 18.1739 21.0921 18.238 21.028L19.878 19.388C19.9463 19.3199 19.9995 19.2381 20.034 19.148C21.6426 19.7103 23.3026 20.1129 24.99 20.35C27.89 20.9 30 23.44 30 26.4V29.21H14.22C14.22 27.65 12.96 26.39 11.4 26.39H2V18.7Z" fill="black"/>
<path d="M20.034 19.148C20.091 19.0004 20.0955 18.8376 20.0468 18.6871C19.9981 18.5365 19.8991 18.4073 19.7664 18.321C19.6337 18.2348 19.4755 18.1967 19.3181 18.2133C19.1607 18.2299 19.0138 18.3 18.902 18.412L18.699 18.616C19.141 18.813 19.589 18.99 20.034 19.148ZM16.983 17.705C16.64 17.4884 16.3117 17.2496 16 16.99C15.9573 16.9542 15.914 16.9192 15.87 16.885L15.922 16.832C16.0431 16.71 16.2053 16.6377 16.377 16.629C16.5486 16.6204 16.7173 16.6762 16.85 16.7854C16.9828 16.8946 17.0699 17.0493 17.0945 17.2194C17.1191 17.3895 17.0794 17.5627 16.983 17.705ZM2 27.383H9.98V29.22H2V27.383Z" fill="black"/>
</svg>
