<svg width="21" height="23" viewBox="0 0 21 23" fill="none" xmlns="http://www.w3.org/2000/svg">
<path d="M2.63628 2.58789L2.708 2.00781C2.75939 1.59992 2.95792 1.22481 3.2663 0.952933C3.57469 0.681056 3.97172 0.531109 4.38284 0.53125H16.6172C17.0283 0.531109 17.4254 0.681056 17.7338 0.952933C18.0421 1.22481 18.2407 1.59992 18.2921 2.00781L18.3638 2.58684C18.3713 2.6465 18.366 2.70708 18.3482 2.76451C18.3304 2.82195 18.3005 2.87492 18.2605 2.91986C18.2206 2.96481 18.1715 3.00069 18.1165 3.02511C18.0616 3.04953 18.002 3.06192 17.9419 3.06145H3.05499C2.99522 3.06145 2.93614 3.04875 2.88165 3.0242C2.82716 2.99964 2.77851 2.96379 2.73893 2.91902C2.69934 2.87424 2.66971 2.82157 2.65202 2.76449C2.63432 2.7074 2.62896 2.64721 2.63628 2.58789ZM14.8242 4.75C15.0124 5.47421 15.4354 6.11557 16.027 6.57362C16.6187 7.03167 17.3455 7.28054 18.0938 7.28125H18.4724C18.5325 7.28172 18.5921 7.26933 18.647 7.24491C18.702 7.2205 18.7511 7.18461 18.791 7.13967C18.831 7.09472 18.8609 7.04176 18.8787 6.98432C18.8965 6.92688 18.9018 6.8663 18.8943 6.80664L18.6833 5.11914C18.6704 5.01662 18.6203 4.92241 18.5426 4.85437C18.4648 4.78633 18.3648 4.74919 18.2615 4.75H14.8242ZM2.52765 7.28125H2.90628C3.65452 7.28054 4.38139 7.03167 4.97304 6.57362C5.56469 6.11557 5.9877 5.47421 6.17581 4.75H2.73858C2.63526 4.74919 2.53523 4.78633 2.45747 4.85437C2.37971 4.92241 2.32962 5.01662 2.31671 5.11914L2.10577 6.80664C2.09825 6.8663 2.10357 6.92688 2.12138 6.98432C2.13919 7.04176 2.16907 7.09472 2.20902 7.13967C2.24897 7.18461 2.29807 7.2205 2.35302 7.24491C2.40798 7.26933 2.46751 7.28172 2.52765 7.28125ZM20.6124 20.5703L19.2075 9.33789C19.1946 9.23537 19.1445 9.14116 19.0668 9.07312C18.989 9.00508 18.889 8.96794 18.7857 8.96875H18.0938C16.898 8.96706 15.7412 8.54274 14.828 7.77076C13.9147 6.99879 13.3037 5.92884 13.103 4.75H11.3438V8.94027C11.3465 9.15795 11.2668 9.3686 11.1206 9.52997C10.9745 9.69134 10.7728 9.79151 10.5559 9.81039C10.4405 9.81805 10.3248 9.8019 10.2158 9.76295C10.1069 9.72399 10.0072 9.66306 9.92283 9.58393C9.83846 9.5048 9.77126 9.40917 9.72541 9.30298C9.67955 9.19679 9.65602 9.08231 9.65628 8.96664V4.75H7.89706C7.69631 5.92884 7.08532 6.99879 6.17207 7.77076C5.25882 8.54274 4.10209 8.96706 2.90628 8.96875H2.21124C2.10792 8.96794 2.00789 9.00508 1.93013 9.07312C1.85236 9.14116 1.80228 9.23537 1.78936 9.33789L0.387684 20.5703C0.349768 20.8749 0.395627 21.184 0.520326 21.4644C0.645026 21.7449 0.843843 21.986 1.09538 22.1618C1.39185 22.3655 1.74398 22.4727 2.10366 22.4688H6.35405C6.72933 22.4688 7.09392 22.3438 7.39018 22.1134C7.68644 21.8831 7.89746 21.5605 7.98987 21.1968L10.5 11.4937L13.0091 21.1905C13.1004 21.5555 13.311 21.8796 13.6076 22.1112C13.9042 22.3429 14.2697 22.4687 14.646 22.4688H18.8964C19.2559 22.4735 19.608 22.367 19.9047 22.1639C20.1566 21.9879 20.3556 21.7465 20.4803 21.4656C20.605 21.1848 20.6507 20.8752 20.6124 20.5703Z" fill="white"/>
</svg>
