<svg width="15" height="21" viewBox="0 0 15 21" fill="none" xmlns="http://www.w3.org/2000/svg">
<path d="M14.3699 18.572C14.3682 18.5664 14.3661 18.561 14.3634 18.5559L10.665 10.2358L12.3621 7.42163L12.3693 7.40972C12.4743 7.22479 12.5298 7.01321 12.5298 6.79758C12.5298 6.58195 12.4743 6.37036 12.3693 6.18543C12.3637 6.17523 12.3572 6.16503 12.3508 6.15483L10.5974 3.50985V1.35628C10.5974 1.22099 10.5465 1.09124 10.4559 0.995572C10.3653 0.899906 10.2424 0.846161 10.1143 0.846161C9.98623 0.846161 9.86336 0.899906 9.77278 0.995572C9.68219 1.09124 9.6313 1.22099 9.6313 1.35628V3.49199L9.17242 4.09734C8.97632 4.35612 8.72762 4.56503 8.44473 4.70859C8.16184 4.85214 7.85201 4.92668 7.53815 4.92668C7.2243 4.92668 6.91446 4.85214 6.63158 4.70859C6.34869 4.56503 6.09999 4.35612 5.90389 4.09734L5.44501 3.49199V1.35628C5.44501 1.22099 5.39411 1.09124 5.30353 0.995572C5.21294 0.899906 5.09008 0.846161 4.96197 0.846161C4.83386 0.846161 4.711 0.899906 4.62041 0.995572C4.52983 1.09124 4.47894 1.22099 4.47894 1.35628V3.50985L2.72552 6.15483C2.71908 6.16503 2.71264 6.17523 2.70701 6.18543C2.602 6.37036 2.54653 6.58195 2.54653 6.79758C2.54653 7.01321 2.602 7.22479 2.70701 7.40972L2.71425 7.42163L4.41131 10.2358L0.712881 18.5559C0.710252 18.561 0.708095 18.5664 0.706441 18.572C0.633076 18.753 0.60336 18.9504 0.619953 19.1464C0.636546 19.3425 0.698931 19.5312 0.801519 19.6956C0.904108 19.8599 1.0437 19.9949 1.20779 20.0883C1.37187 20.1817 1.55534 20.2306 1.74174 20.2308H13.3346C13.521 20.2308 13.7046 20.1819 13.8688 20.0886C14.033 19.9952 14.1727 19.8603 14.2754 19.6959C14.3781 19.5315 14.4405 19.3428 14.4571 19.1467C14.4738 18.9505 14.4441 18.7531 14.3707 18.572H14.3699ZM3.5338 6.8826C3.52063 6.85824 3.51338 6.83082 3.51267 6.80279C3.51197 6.77475 3.51785 6.74697 3.52978 6.72191L4.98773 4.52159L5.14874 4.73499C5.43535 5.11324 5.79884 5.41858 6.21231 5.62841C6.62577 5.83824 7.07862 5.94719 7.53735 5.94719C7.99607 5.94719 8.44893 5.83824 8.86239 5.62841C9.27585 5.41858 9.63934 5.11324 9.92595 4.73499L10.087 4.52159L11.5449 6.72021C11.5575 6.74492 11.564 6.77252 11.564 6.80055C11.564 6.82859 11.5575 6.85619 11.5449 6.8809L9.8543 9.68657H5.22684L3.5338 6.8826ZM13.4682 19.134C13.4539 19.1579 13.434 19.1775 13.4105 19.1909C13.3869 19.2043 13.3605 19.2111 13.3338 19.2105H1.74174C1.71557 19.2106 1.68978 19.2039 1.6666 19.1911C1.64342 19.1782 1.62356 19.1596 1.60873 19.1368C1.59391 19.114 1.58456 19.0878 1.5815 19.0603C1.57845 19.0329 1.58178 19.0051 1.5912 18.9793L5.2687 10.7085H9.80761L13.4843 18.9793C13.494 19.0044 13.4977 19.0318 13.4948 19.0588C13.492 19.0858 13.4829 19.1117 13.4682 19.134Z" fill="#575757"/>
</svg>
