<svg width="19" height="17" viewBox="0 0 19 17" fill="none" xmlns="http://www.w3.org/2000/svg">
<path d="M1.70472 17C1.21917 17 0.813833 16.8364 0.488722 16.5091C0.163611 16.1819 0.000703704 15.7735 0 15.2841V3.84094C0 3.35219 0.162907 2.94419 0.488722 2.61694C0.814537 2.28969 1.21987 2.12571 1.70472 2.125H4.82706L6.26789 0.547187C6.4213 0.375771 6.60707 0.241896 6.82522 0.145563C7.04337 0.0492293 7.27524 0.000708333 7.52083 0H11.4792C11.7241 0 11.9559 0.0485209 12.1748 0.145563C12.3936 0.242604 12.5794 0.376479 12.7321 0.547187L14.1729 2.125H17.2953C17.7808 2.125 18.1862 2.28898 18.5113 2.61694C18.8364 2.9449 18.9993 3.3529 19 3.84094V15.2841C19 15.7728 18.8374 16.1808 18.5123 16.5081C18.1872 16.8353 17.7815 16.9993 17.2953 17H1.70472ZM1.70472 15.9375H17.2953C17.4846 15.9375 17.6401 15.8762 17.7618 15.7537C17.8836 15.6311 17.9444 15.4746 17.9444 15.2841V3.84094C17.9444 3.6504 17.8836 3.49385 17.7618 3.37131C17.6401 3.24877 17.4846 3.1875 17.2953 3.1875H13.7096L11.7631 1.0625H7.23689L5.29044 3.1875H1.70472C1.51543 3.1875 1.35991 3.24877 1.23817 3.37131C1.11643 3.49385 1.05556 3.6504 1.05556 3.84094V15.2841C1.05556 15.4746 1.11643 15.6311 1.23817 15.7537C1.35991 15.8762 1.51543 15.9375 1.70472 15.9375ZM6.00822 12.8722H12.9918V12.6969C12.9918 12.0771 12.6821 11.5972 12.0629 11.2572C11.445 10.9172 10.5907 10.7472 9.5 10.7472C8.40926 10.7472 7.55461 10.9172 6.93606 11.2572C6.3175 11.5972 6.00822 12.0771 6.00822 12.6969V12.8722ZM9.5 9.03125C9.94545 9.03125 10.3205 8.87754 10.6252 8.57012C10.9299 8.26271 11.0826 7.88517 11.0833 7.4375C11.084 6.98983 10.9313 6.61229 10.6252 6.30487C10.3191 5.99746 9.94404 5.84375 9.5 5.84375C9.05596 5.84375 8.68089 5.99746 8.37478 6.30487C8.06867 6.61229 7.91596 6.98983 7.91667 7.4375C7.91737 7.88517 8.07007 8.26271 8.37478 8.57012C8.67948 8.87754 9.05456 9.03125 9.5 9.03125Z" fill="#575757"/>
</svg>
