<svg width="18" height="18" viewBox="0 0 18 18" fill="none" xmlns="http://www.w3.org/2000/svg">
<path d="M12.1251 7.75V4C12.1251 3.1712 11.7959 2.37634 11.2098 1.79029C10.6238 1.20424 9.82891 0.875 9.00011 0.875C8.17131 0.875 7.37645 1.20424 6.7904 1.79029C6.20435 2.37634 5.87511 3.1712 5.87511 4V7.75M15.3384 6.08917L16.3909 16.0892C16.4493 16.6433 16.0159 17.125 15.4584 17.125H2.54178C2.41028 17.1251 2.28023 17.0976 2.16007 17.0442C2.0399 16.9908 1.93232 16.9127 1.8443 16.8151C1.75627 16.7174 1.68979 16.6023 1.64915 16.4772C1.60852 16.3521 1.59465 16.2199 1.60844 16.0892L2.66178 6.08917C2.68607 5.8588 2.7948 5.64558 2.96698 5.49063C3.13917 5.33568 3.36263 5.24996 3.59428 5.25H14.4059C14.8859 5.25 15.2884 5.6125 15.3384 6.08917ZM6.18761 7.75C6.18761 7.83288 6.15469 7.91237 6.09608 7.97097C6.03748 8.02958 5.95799 8.0625 5.87511 8.0625C5.79223 8.0625 5.71274 8.02958 5.65414 7.97097C5.59553 7.91237 5.56261 7.83288 5.56261 7.75C5.56261 7.66712 5.59553 7.58763 5.65414 7.52903C5.71274 7.47042 5.79223 7.4375 5.87511 7.4375C5.95799 7.4375 6.03748 7.47042 6.09608 7.52903C6.15469 7.58763 6.18761 7.66712 6.18761 7.75ZM12.4376 7.75C12.4376 7.83288 12.4047 7.91237 12.3461 7.97097C12.2875 8.02958 12.208 8.0625 12.1251 8.0625C12.0422 8.0625 11.9627 8.02958 11.9041 7.97097C11.8455 7.91237 11.8126 7.83288 11.8126 7.75C11.8126 7.66712 11.8455 7.58763 11.9041 7.52903C11.9627 7.47042 12.0422 7.4375 12.1251 7.4375C12.208 7.4375 12.2875 7.47042 12.3461 7.52903C12.4047 7.58763 12.4376 7.66712 12.4376 7.75Z" stroke="#575757" stroke-width="1.5" stroke-linecap="round" stroke-linejoin="round"/>
</svg>
