<svg width="22" height="24" viewBox="0 0 22 24" fill="none" xmlns="http://www.w3.org/2000/svg">
<path fill-rule="evenodd" clip-rule="evenodd" d="M5.79995 5.50017V6.80017H4.06705C3.49797 6.8003 2.94961 7.0137 2.53015 7.39827C2.11068 7.78284 1.85058 8.31065 1.80115 8.87757L0.727348 21.2276C0.699965 21.5416 0.738158 21.858 0.839503 22.1565C0.940849 22.455 1.10313 22.7292 1.31607 22.9617C1.529 23.1942 1.78792 23.3799 2.07642 23.507C2.36492 23.6341 2.67669 23.6999 2.99195 23.7002H19.0079C19.3233 23.7001 19.6352 23.6345 19.9239 23.5074C20.2125 23.3804 20.4716 23.1947 20.6847 22.9622C20.8978 22.7297 21.0602 22.4554 21.1616 22.1568C21.263 21.8582 21.3012 21.5418 21.2738 21.2276L20.2 8.87757C20.1506 8.31042 19.8903 7.78243 19.4706 7.39783C19.0508 7.01322 18.5021 6.79997 17.9328 6.80017H16.1999V5.50017C16.1999 4.12105 15.6521 2.7984 14.6769 1.82322C13.7017 0.848027 12.3791 0.300171 10.9999 0.300171C9.62082 0.300171 8.29818 0.848027 7.32299 1.82322C6.3478 2.7984 5.79995 4.12105 5.79995 5.50017ZM10.9999 2.25017C10.138 2.25017 9.31134 2.59258 8.70185 3.20207C8.09236 3.81157 7.74995 4.63822 7.74995 5.50017V6.80017H14.2499V5.50017C14.2499 4.63822 13.9075 3.81157 13.298 3.20207C12.6886 2.59258 11.8619 2.25017 10.9999 2.25017ZM7.74995 12.0002C7.74995 12.8621 8.09236 13.6888 8.70185 14.2983C9.31134 14.9078 10.138 15.2502 10.9999 15.2502C11.8619 15.2502 12.6886 14.9078 13.298 14.2983C13.9075 13.6888 14.2499 12.8621 14.2499 12.0002V10.3752C14.2499 10.1166 14.3527 9.86859 14.5355 9.68574C14.7184 9.50289 14.9664 9.40017 15.2249 9.40017C15.4835 9.40017 15.7315 9.50289 15.9144 9.68574C16.0972 9.86859 16.1999 10.1166 16.1999 10.3752V12.0002C16.1999 13.3793 15.6521 14.7019 14.6769 15.6771C13.7017 16.6523 12.3791 17.2002 10.9999 17.2002C9.62082 17.2002 8.29818 16.6523 7.32299 15.6771C6.3478 14.7019 5.79995 13.3793 5.79995 12.0002V10.3752C5.79995 10.1166 5.90267 9.86859 6.08552 9.68574C6.26837 9.50289 6.51636 9.40017 6.77495 9.40017C7.03353 9.40017 7.28153 9.50289 7.46438 9.68574C7.64722 9.86859 7.74995 10.1166 7.74995 10.3752V12.0002Z" fill="#DCDDE2"/>
</svg>
