<svg width="24" height="24" viewBox="0 0 24 24" fill="none" xmlns="http://www.w3.org/2000/svg">
<path d="M10.5299 0.851539C10.9456 0.514308 11.4646 0.330261 11.9999 0.330261C12.5352 0.330261 13.0542 0.514308 13.4699 0.851539L22.3693 8.06154C22.7739 8.38924 23.1004 8.8031 23.3248 9.27296C23.5492 9.74282 23.666 10.2568 23.6666 10.7775V21.3335C23.6666 21.9524 23.4208 22.5459 22.9832 22.9835C22.5456 23.421 21.9521 23.6669 21.3333 23.6669H17.8333C17.2144 23.6669 16.6209 23.421 16.1833 22.9835C15.7458 22.5459 15.4999 21.9524 15.4999 21.3335V15.5002C15.4999 15.1908 15.377 14.894 15.1582 14.6752C14.9394 14.4565 14.6427 14.3335 14.3333 14.3335H9.66659C9.35717 14.3335 9.06042 14.4565 8.84163 14.6752C8.62284 14.894 8.49992 15.1908 8.49992 15.5002V21.3335C8.49992 21.9524 8.25409 22.5459 7.8165 22.9835C7.37892 23.421 6.78542 23.6669 6.16659 23.6669H2.66659C2.04775 23.6669 1.45425 23.421 1.01667 22.9835C0.579085 22.5459 0.333252 21.9524 0.333252 21.3335V10.7799C0.333149 10.2584 0.449583 9.74345 0.674042 9.27273C0.898501 8.80201 1.22531 8.3874 1.63059 8.05921L10.5299 0.851539Z" fill="#DCDDE2"/>
</svg>
