<svg width="17" height="23" viewBox="0 0 17 23" fill="none" xmlns="http://www.w3.org/2000/svg">
<path d="M8.5 0.250183C9.61252 0.250183 10.7001 0.580083 11.6251 1.19817C12.5501 1.81625 13.2711 2.69475 13.6968 3.72259C14.1226 4.75042 14.234 5.88142 14.0169 6.97257C13.7999 8.06371 13.2641 9.06599 12.4775 9.85266C11.6908 10.6393 10.6885 11.1751 9.59738 11.3921C8.50624 11.6091 7.37524 11.4977 6.34741 11.072C5.31957 10.6463 4.44107 9.92529 3.82298 9.00027C3.2049 8.07524 2.875 6.9877 2.875 5.87518L2.88063 5.63106C2.94353 4.1829 3.56306 2.81493 4.61 1.81243C5.65694 0.809917 7.05048 0.250267 8.5 0.250183ZM10.75 13.7502C12.2418 13.7502 13.6726 14.3428 14.7275 15.3977C15.7824 16.4526 16.375 17.8833 16.375 19.3752V20.5002C16.375 21.0969 16.1379 21.6692 15.716 22.0912C15.294 22.5131 14.7217 22.7502 14.125 22.7502H2.875C2.27826 22.7502 1.70597 22.5131 1.28401 22.0912C0.862053 21.6692 0.625 21.0969 0.625 20.5002V19.3752C0.625 17.8833 1.21763 16.4526 2.27252 15.3977C3.32742 14.3428 4.75816 13.7502 6.25 13.7502H10.75Z" fill="#DCDDE2"/>
</svg>
