<svg width="19" height="23" viewBox="0 0 19 23" fill="none" xmlns="http://www.w3.org/2000/svg">
<path d="M0.875 22.2814C0.874909 22.4062 0.907322 22.5289 0.969048 22.6374C1.03077 22.7459 1.11969 22.8364 1.22703 22.9001C1.33438 22.9638 1.45646 22.9984 1.58125 23.0006C1.70605 23.0028 1.82926 22.9724 1.93875 22.9125L9.5 18.7869L17.0613 22.9125C17.1707 22.9724 17.294 23.0028 17.4187 23.0006C17.5435 22.9984 17.6656 22.9638 17.773 22.9001C17.8803 22.8364 17.9692 22.7459 18.031 22.6374C18.0927 22.5289 18.1251 22.4062 18.125 22.2814V2.87518C18.125 2.11269 17.8221 1.38142 17.2829 0.842251C16.7438 0.303084 16.0125 0.000183105 15.25 0.000183105L3.75 0.000183105C2.9875 0.000183105 2.25624 0.303084 1.71707 0.842251C1.1779 1.38142 0.875 2.11269 0.875 2.87518V22.2814ZM9.5 6.33956C11.4938 4.29112 16.4776 7.87768 9.5 12.4877C2.52237 7.87768 7.50619 4.29256 9.5 6.34243V6.33956Z" fill="#DCDDE2"/>
</svg>
