<svg width="26" height="26" viewBox="0 0 26 26" fill="none" xmlns="http://www.w3.org/2000/svg">
<path d="M11.9509 14.05H1.44999C1.15176 14.05 0.902544 13.9492 0.702328 13.7476C0.500711 13.546 0.399902 13.2968 0.399902 13C0.399902 12.7032 0.500711 12.454 0.702328 12.2524C0.903944 12.0508 1.15317 11.9507 1.44999 11.9521H11.9509V1.45209C11.9509 1.15389 12.0517 0.904694 12.2533 0.704494C12.4549 0.501494 12.7041 0.399994 13.001 0.399994C13.2978 0.399994 13.547 0.500794 13.7486 0.702394C13.9502 0.903994 14.0503 1.15319 14.0489 1.44999V11.95H24.5498C24.848 11.95 25.0973 12.0508 25.2975 12.2524C25.4991 12.454 25.5999 12.7039 25.5999 13.0021C25.5999 13.3003 25.4991 13.5495 25.2975 13.7497C25.0959 13.9499 24.8466 14.05 24.5498 14.05H14.0489V24.55C14.0489 24.8482 13.9481 25.0974 13.7465 25.2976C13.5463 25.4992 13.2978 25.6 13.001 25.6C12.7041 25.6 12.4549 25.4992 12.2533 25.2976C12.0517 25.096 11.9516 24.8468 11.953 24.55L11.9509 14.05Z" fill="#494949"/>
</svg>
