<svg width="24" height="24" viewBox="0 0 24 24" fill="none" xmlns="http://www.w3.org/2000/svg">
<path fill-rule="evenodd" clip-rule="evenodd" d="M7.4063 6.2784L6.9143 7.8H5.3999C4.60425 7.8 3.84119 8.11607 3.27858 8.67868C2.71597 9.24129 2.3999 10.0043 2.3999 10.8V18C2.3999 18.7956 2.71597 19.5587 3.27858 20.1213C3.84119 20.6839 4.60425 21 5.3999 21H18.5999C19.3956 21 20.1586 20.6839 20.7212 20.1213C21.2838 19.5587 21.5999 18.7956 21.5999 18V10.8C21.5999 10.0043 21.2838 9.24129 20.7212 8.67868C20.1586 8.11607 19.3956 7.8 18.5999 7.8H17.0843L16.5935 6.2784C16.3985 5.67439 16.017 5.14778 15.5038 4.77432C14.9906 4.40085 14.3722 4.19977 13.7375 4.2H10.2623C9.6276 4.19977 9.00919 4.40085 8.49599 4.77432C7.9828 5.14778 7.60128 5.67439 7.4063 6.2784ZM5.3999 9H7.7879L8.5475 6.648C8.66432 6.28541 8.89316 5.96924 9.20109 5.74498C9.50902 5.52071 9.88016 5.39993 10.2611 5.4H13.7387C14.1194 5.40018 14.4903 5.52109 14.798 5.74533C15.1057 5.96957 15.3343 6.28561 15.4511 6.648L16.2107 9H18.5999C19.0773 9 19.5351 9.18964 19.8727 9.5272C20.2103 9.86477 20.3999 10.3226 20.3999 10.8V18C20.3999 18.4774 20.2103 18.9352 19.8727 19.2728C19.5351 19.6104 19.0773 19.8 18.5999 19.8H5.3999C4.92251 19.8 4.46468 19.6104 4.12711 19.2728C3.78954 18.9352 3.5999 18.4774 3.5999 18V10.8C3.5999 10.3226 3.78954 9.86477 4.12711 9.5272C4.46468 9.18964 4.92251 9 5.3999 9Z" fill="#AFAEAE"/>
<path fill-rule="evenodd" clip-rule="evenodd" d="M8.3999 13.8C8.3999 14.7548 8.77919 15.6705 9.45432 16.3456C10.1294 17.0207 11.0451 17.4 11.9999 17.4C12.9547 17.4 13.8704 17.0207 14.5455 16.3456C15.2206 15.6705 15.5999 14.7548 15.5999 13.8C15.5999 12.8452 15.2206 11.9295 14.5455 11.2544C13.8704 10.5793 12.9547 10.2 11.9999 10.2C11.0451 10.2 10.1294 10.5793 9.45432 11.2544C8.77919 11.9295 8.3999 12.8452 8.3999 13.8ZM14.3999 13.8C14.3999 14.4365 14.147 15.047 13.697 15.4971C13.2469 15.9471 12.6364 16.2 11.9999 16.2C11.3634 16.2 10.7529 15.9471 10.3028 15.4971C9.85276 15.047 9.5999 14.4365 9.5999 13.8C9.5999 13.1635 9.85276 12.553 10.3028 12.1029C10.7529 11.6529 11.3634 11.4 11.9999 11.4C12.6364 11.4 13.2469 11.6529 13.697 12.1029C14.147 12.553 14.3999 13.1635 14.3999 13.8Z" fill="#AFAEAE"/>
</svg>
