<svg width="20" height="20" viewBox="0 0 20 20" fill="none" xmlns="http://www.w3.org/2000/svg">
<path d="M0.195801 0.894401C0.195801 0.708749 0.269551 0.530701 0.400826 0.399426C0.532102 0.26815 0.710149 0.194401 0.895801 0.194401H1.509C2.5268 0.194401 3.112 0.856601 3.4508 1.5174C3.6818 1.9696 3.8484 2.5212 3.987 3H18.4C18.6163 3.00006 18.8297 3.05026 19.0234 3.14664C19.217 3.24302 19.3857 3.38298 19.5162 3.55551C19.6467 3.72805 19.7354 3.92848 19.7754 4.14107C19.8154 4.35366 19.8056 4.57263 19.7468 4.7808L17.6524 12.1658C17.4858 12.7517 17.1327 13.2673 16.6466 13.6344C16.1605 14.0015 15.5679 14.2001 14.9588 14.2H7.8482C7.23399 14.2002 6.63674 13.9985 6.14849 13.6258C5.66023 13.2532 5.30805 12.7303 5.1462 12.1378L4.2474 8.8408L4.2334 8.796L2.7914 3.8988L2.6514 3.427C2.5114 2.9426 2.3882 2.5142 2.2034 2.1544C1.9808 1.7204 1.7764 1.5944 1.509 1.5944H0.895801C0.710149 1.5944 0.532102 1.52065 0.400826 1.38938C0.269551 1.2581 0.195801 1.08005 0.195801 0.894401ZM5.583 8.418L6.4972 11.7724C6.57825 12.0685 6.7544 12.3298 6.99852 12.516C7.24263 12.7022 7.54119 12.8029 7.8482 12.8028H14.9602C15.2646 12.8025 15.5606 12.703 15.8034 12.5193C16.0462 12.3356 16.2225 12.0779 16.3056 11.785L18.4 4.4H4.4L5.583 8.418ZM10 17.6986C10 18.2556 9.77875 18.7897 9.38493 19.1835C8.9911 19.5774 8.45696 19.7986 7.9 19.7986C7.34305 19.7986 6.8089 19.5774 6.41508 19.1835C6.02125 18.7897 5.8 18.2556 5.8 17.6986C5.8 17.1416 6.02125 16.6075 6.41508 16.2137C6.8089 15.8198 7.34305 15.5986 7.9 15.5986C8.45696 15.5986 8.9911 15.8198 9.38493 16.2137C9.77875 16.6075 10 17.1416 10 17.6986ZM8.6 17.6986C8.6 17.5129 8.52625 17.3349 8.39498 17.2036C8.2637 17.0723 8.08565 16.9986 7.9 16.9986C7.71435 16.9986 7.5363 17.0723 7.40503 17.2036C7.27375 17.3349 7.2 17.5129 7.2 17.6986C7.2 17.8843 7.27375 18.0623 7.40503 18.1936C7.5363 18.3249 7.71435 18.3986 7.9 18.3986C8.08565 18.3986 8.2637 18.3249 8.39498 18.1936C8.52625 18.0623 8.6 17.8843 8.6 17.6986ZM17 17.6986C17 18.2556 16.7788 18.7897 16.3849 19.1835C15.9911 19.5774 15.457 19.7986 14.9 19.7986C14.343 19.7986 13.8089 19.5774 13.4151 19.1835C13.0213 18.7897 12.8 18.2556 12.8 17.6986C12.8 17.1416 13.0213 16.6075 13.4151 16.2137C13.8089 15.8198 14.343 15.5986 14.9 15.5986C15.457 15.5986 15.9911 15.8198 16.3849 16.2137C16.7788 16.6075 17 17.1416 17 17.6986ZM15.6 17.6986C15.6 17.5129 15.5263 17.3349 15.395 17.2036C15.2637 17.0723 15.0857 16.9986 14.9 16.9986C14.7144 16.9986 14.5363 17.0723 14.405 17.2036C14.2738 17.3349 14.2 17.5129 14.2 17.6986C14.2 17.8843 14.2738 18.0623 14.405 18.1936C14.5363 18.3249 14.7144 18.3986 14.9 18.3986C15.0857 18.3986 15.2637 18.3249 15.395 18.1936C15.5263 18.0623 15.6 17.8843 15.6 17.6986Z" fill="black"/>
</svg>
