<svg width="20" height="20" viewBox="0 0 20 20" fill="none" xmlns="http://www.w3.org/2000/svg">
<g clip-path="url(#clip0_155_107)">
<path d="M18.7229 1.12857L5.09143 12.4886M8.30285 15.7143L11.4143 18.8114C11.6054 19.0073 11.8443 19.1498 12.1073 19.225C12.3704 19.3002 12.6486 19.3053 12.9143 19.24C13.1814 19.1778 13.4281 19.0478 13.6305 18.8627C13.8329 18.6775 13.9842 18.4434 14.07 18.1829L19.1786 2.86857C19.2854 2.58174 19.3076 2.27025 19.2425 1.97116C19.1774 1.67207 19.0277 1.398 18.8113 1.18156C18.5949 0.965117 18.3208 0.815431 18.0217 0.750319C17.7226 0.685206 17.4111 0.70741 17.1243 0.814286L1.81 5.92429C1.54046 6.01614 1.30036 6.17832 1.1145 6.39406C0.92865 6.6098 0.803797 6.87127 0.752855 7.15143C0.700238 7.40641 0.711859 7.67048 0.786672 7.91986C0.861485 8.16923 0.99714 8.39609 1.18143 8.58L5.09143 12.49L4.96285 17.4414L8.30285 15.7143Z" stroke="black" stroke-linecap="round" stroke-linejoin="round"/>
</g>
<defs>
<clipPath id="clip0_155_107">
<rect width="20" height="20" fill="white"/>
</clipPath>
</defs>
</svg>
