<svg width="14" height="14" viewBox="0 0 14 14" fill="none" xmlns="http://www.w3.org/2000/svg">
<path d="M1.6468 8.23417C1.09979 8.78118 0.79248 9.52309 0.79248 10.2967C0.79248 11.0703 1.09979 11.8122 1.6468 12.3592C2.19381 12.9062 2.93571 13.2135 3.7093 13.2135C4.48288 13.2135 5.22479 12.9062 5.7718 12.3592M7.83263 6.17334C8.1035 6.44418 8.31836 6.76573 8.46496 7.11961C8.61155 7.4735 8.68701 7.85279 8.68701 8.23584C8.68701 8.61889 8.61155 8.99818 8.46496 9.35207C8.31836 9.70595 8.1035 10.0275 7.83263 10.2983L5.77013 12.3608M3.70763 6.17334L1.64513 8.23584M12.3593 5.77167C12.9063 5.22466 13.2136 4.48276 13.2136 3.70917C13.2136 2.93559 12.9063 2.19368 12.3593 1.64667C11.8123 1.09967 11.0704 0.792358 10.2968 0.792358C9.52321 0.792358 8.7813 1.09967 8.2343 1.64667M6.17513 7.83334C5.90426 7.5625 5.68939 7.24095 5.5428 6.88707C5.3962 6.53318 5.32075 6.15389 5.32075 5.77084C5.32075 5.38779 5.3962 5.0085 5.5428 4.65461C5.68939 4.30073 5.90426 3.97918 6.17513 3.70834L8.2368 1.64584M10.2985 7.83334L12.361 5.77084" stroke="#566794" stroke-linecap="round" stroke-linejoin="round"/>
</svg>
