<svg width="18" height="16" viewBox="0 0 18 16" fill="none" xmlns="http://www.w3.org/2000/svg">
<path d="M4.5 12.615H13.654L10.827 8.846L8.212 12.154L6.462 10.038L4.5 12.615ZM1.615 16C1.155 16 0.771 15.846 0.463 15.538C0.155 15.23 0.000666667 14.8457 0 14.385V3.615C0 3.155 0.154333 2.771 0.463 2.463C0.771667 2.155 1.15567 2.00067 1.615 2H4.573L6.423 0H11.577L13.427 2H16.385C16.845 2 17.229 2.15433 17.537 2.463C17.845 2.77167 17.9993 3.15567 18 3.615V14.385C18 14.845 17.846 15.229 17.538 15.537C17.23 15.845 16.8457 15.9993 16.385 16H1.615ZM1.615 15H16.385C16.5643 15 16.7117 14.9423 16.827 14.827C16.9423 14.7117 17 14.5643 17 14.385V3.615C17 3.43567 16.9423 3.28833 16.827 3.173C16.7117 3.05767 16.5643 3 16.385 3H12.988L11.144 1H6.856L5.012 3H1.615C1.43567 3 1.28833 3.05767 1.173 3.173C1.05767 3.28833 1 3.43567 1 3.615V14.385C1 14.5643 1.05767 14.7117 1.173 14.827C1.28833 14.9423 1.43567 15 1.615 15Z" fill="#575757"/>
</svg>
