<svg width="26" height="26" viewBox="0 0 26 26" fill="none" xmlns="http://www.w3.org/2000/svg">
<path d="M22.3578 15.314L22.3037 14.7756L22.2874 14.7767L22.269 14.7799L22.3578 15.314ZM22.3578 15.314L22.412 15.8535L22.4304 15.8513L22.4478 15.8481L22.3578 15.314ZM17.9812 21.2528L18.3246 20.8336L18.3192 20.8303L17.9812 21.2528ZM17.9812 21.2528L17.6378 21.6721L17.6432 21.6764L17.9812 21.2528ZM8.01883 21.2528L7.67542 20.8347L7.66783 20.8412L7.65917 20.8488L8.01883 21.2528ZM8.01883 21.2528L8.36225 21.6732L8.37092 21.6656L8.3785 21.6591L8.01883 21.2528ZM3.64108 10.686V10.1443H3.61508L3.588 10.1465L3.64108 10.686ZM3.64108 10.686V11.2277H3.66817L3.69525 11.2244L3.64108 10.686ZM15.8513 3.58692C15.8351 3.39049 15.8123 3.19466 15.7831 2.99975C15.7583 2.82728 15.7064 2.65983 15.6293 2.50358L14.6662 3.00083C14.677 3.0225 14.6954 3.06583 14.7138 3.1785C14.7344 3.29767 14.7496 3.45258 14.7745 3.69417L15.8513 3.58692ZM16.0637 4.89017C16.0507 4.87392 16.0117 4.80783 15.9694 4.576C15.919 4.24776 15.8811 3.91786 15.8535 3.58692L14.7745 3.69417C14.8178 4.12858 14.8536 4.48825 14.9034 4.76775C14.9522 5.04075 15.028 5.31917 15.2024 5.54775L16.0637 4.89017ZM16.5663 5.09817C16.4716 5.11091 16.3753 5.09838 16.287 5.06185C16.1987 5.02532 16.1217 4.96609 16.0637 4.89017L15.2013 5.54667C15.3753 5.7748 15.6066 5.95281 15.8716 6.0626C16.1367 6.17239 16.4261 6.21005 16.7104 6.17175L16.5663 5.09817ZM17.6367 4.32575C17.2846 4.615 17.0441 4.81108 16.8545 4.94217C16.6606 5.0765 16.5858 5.09492 16.5663 5.09817L16.7104 6.17175C16.9943 6.13383 17.2445 5.99083 17.4731 5.83158C17.706 5.66908 17.9844 5.44158 18.3235 5.16425L17.6367 4.32575ZM18.5597 3.718C18.3863 3.77325 18.2401 3.861 18.1014 3.95958C17.9671 4.05492 17.8143 4.18058 17.6367 4.32575L18.3235 5.16425C18.5109 5.01042 18.6322 4.91183 18.7297 4.8425C18.7782 4.8035 18.8322 4.77208 18.8901 4.74933L18.5597 3.718ZM19.7004 3.77433C19.3395 3.61814 18.9342 3.59813 18.5597 3.718L18.8901 4.74933C19.0147 4.70988 19.1494 4.7168 19.2693 4.76883L19.7004 3.77433ZM20.5584 4.472C20.3959 4.3095 20.2562 4.16867 20.1327 4.06033C20.0045 3.94284 19.8587 3.84631 19.7004 3.77433L19.2693 4.76883C19.292 4.77858 19.3332 4.80133 19.4198 4.87717C19.5098 4.95517 19.6203 5.06567 19.7925 5.23792L20.5584 4.472ZM21.5258 5.43942L20.5584 4.472L19.7925 5.23792L20.7599 6.20533L21.5258 5.43942ZM22.2235 6.29742C22.1511 6.13913 22.0543 5.99325 21.9364 5.86517C21.8281 5.74167 21.6873 5.60192 21.5258 5.43942L20.7599 6.20533C20.9322 6.37758 21.0416 6.48808 21.1217 6.578C21.1976 6.66467 21.2193 6.70583 21.229 6.72858L22.2235 6.29742ZM22.2798 7.43817C22.3997 7.06363 22.3797 6.65832 22.2235 6.29742L21.229 6.72858C21.2807 6.84861 21.2872 6.98328 21.2474 7.10775L22.2798 7.43817ZM21.6721 8.36117C21.8172 8.1835 21.9429 8.03075 22.0383 7.89642C22.1358 7.75775 22.2246 7.6115 22.2798 7.43817L21.2474 7.10775C21.225 7.16555 21.194 7.21961 21.1553 7.26808C21.0521 7.40666 20.9448 7.54214 20.8336 7.67433L21.6721 8.36117ZM20.8997 9.4315C20.9029 9.412 20.9213 9.33725 21.0557 9.14333C21.1868 8.95375 21.3828 8.71325 21.6721 8.36117L20.8336 7.67433C20.5563 8.01342 20.3277 8.29183 20.1663 8.52475C20.007 8.75225 19.864 9.00358 19.8261 9.28742L20.8997 9.4315ZM21.1077 9.93417C21.0317 9.87617 20.9725 9.79912 20.936 9.71084C20.8995 9.62256 20.8869 9.52619 20.8997 9.4315L19.8261 9.28742C19.788 9.57158 19.8257 9.86075 19.9355 10.1256C20.0453 10.3905 20.2232 10.6215 20.4512 10.7954L21.1077 9.93417ZM22.4109 10.1454C21.957 10.0999 21.6493 10.0696 21.4218 10.0284C21.19 9.98617 21.1239 9.94717 21.1077 9.93417L20.4512 10.7954C20.6787 10.9688 20.9571 11.0446 21.2312 11.0944C21.5096 11.1442 21.8682 11.1811 22.3037 11.2244L22.4109 10.1454ZM23.4943 10.3686C23.338 10.2915 23.1706 10.2395 22.9981 10.2148C22.8356 10.1877 22.6384 10.1682 22.4109 10.1454L22.3026 11.2233C22.5452 11.2483 22.7002 11.2634 22.8193 11.284C22.8806 11.2909 22.9405 11.307 22.997 11.3317L23.4943 10.3686ZM24.2602 11.2147C24.1156 10.8493 23.8435 10.5487 23.4943 10.3686L22.997 11.3317C23.1135 11.3916 23.2043 11.4916 23.2527 11.6133L24.2602 11.2147ZM24.3739 12.3142C24.3739 12.0857 24.3739 11.8874 24.3631 11.7227C24.3558 11.549 24.321 11.3775 24.2602 11.2147L23.2527 11.6133C23.2613 11.6361 23.2743 11.6816 23.2819 11.7953C23.2904 11.9685 23.2932 12.142 23.2906 12.3153L24.3739 12.3142ZM24.3739 13.6836V12.3142H23.2906V13.6836H24.3739ZM24.2602 14.7821C24.3273 14.6131 24.3523 14.4441 24.3631 14.274C24.3739 14.1104 24.3739 13.9122 24.3739 13.6836H23.2906C23.2906 13.9262 23.2906 14.0822 23.2819 14.2025C23.2814 14.2643 23.2715 14.3257 23.2527 14.3845L24.2602 14.7821ZM23.4943 15.6293C23.8436 15.4488 24.1158 15.1478 24.2602 14.7821L23.2527 14.3845C23.2043 14.5062 23.1135 14.6063 22.997 14.6662L23.4943 15.6293ZM22.4109 15.8524C22.6384 15.8297 22.8367 15.8091 22.9981 15.782C23.166 15.7549 23.3318 15.7127 23.4932 15.6303L22.997 14.6662C22.9405 14.6909 22.8806 14.707 22.8193 14.7138C22.7002 14.7344 22.5452 14.7496 22.3037 14.7745L22.4109 15.8524ZM21.1088 16.0637C21.125 16.0507 21.1911 16.0106 21.4229 15.9694C21.6504 15.9283 21.9581 15.8968 22.4109 15.8524L22.3037 14.7745C21.8692 14.8178 21.5096 14.8525 21.2301 14.9034C20.9571 14.9522 20.6798 15.028 20.4512 15.2013L21.1088 16.0637ZM20.8997 16.5663C20.887 16.4715 20.8997 16.3751 20.9365 16.2868C20.9732 16.1985 21.0326 16.1215 21.1088 16.0637L20.4512 15.2013C20.223 15.3753 20.045 15.6066 19.9352 15.8716C19.8254 16.1367 19.7878 16.4261 19.8261 16.7104L20.8997 16.5663ZM21.6721 17.6367C21.4577 17.3831 21.2521 17.1222 21.0557 16.8545C20.9213 16.6617 20.9029 16.5858 20.8997 16.5663L19.8272 16.7115C19.8651 16.9953 20.0081 17.2445 20.1663 17.4731C20.3288 17.7049 20.5563 17.9844 20.8336 18.3224L21.6721 17.6367ZM22.2798 18.5597C22.224 18.3948 22.1424 18.2398 22.0383 18.1003C21.9211 17.942 21.7989 17.7874 21.6721 17.6367L20.8336 18.3224C20.9874 18.5109 21.086 18.6312 21.1553 18.7297C21.1938 18.7779 21.2249 18.8316 21.2474 18.889L22.2798 18.5597ZM22.2235 19.7004C22.3797 19.3395 22.3997 18.9342 22.2798 18.5597L21.2474 18.889C21.2875 19.0138 21.2809 19.1489 21.229 19.2693L22.2235 19.7004ZM21.5269 20.5573C21.6883 20.3959 21.8281 20.2562 21.9364 20.1327C22.0491 20.0038 22.1509 19.8683 22.2235 19.7004L21.229 19.2693C21.2006 19.3243 21.1641 19.3747 21.1207 19.4188C21.0042 19.5465 20.8839 19.6708 20.7599 19.7914L21.5269 20.5573ZM20.5584 21.5258L21.5269 20.5573L20.7599 19.7914L19.7925 20.7599L20.5584 21.5258ZM19.7004 22.2224C19.8673 22.1498 20.0037 22.0491 20.1327 21.9364C20.2562 21.8281 20.3959 21.6873 20.5584 21.5248L19.7925 20.7599C19.6203 20.9322 19.5098 21.0416 19.4198 21.1207C19.3754 21.1642 19.3246 21.2007 19.2693 21.229L19.7004 22.2224ZM18.5597 22.2798C18.9343 22.3994 19.3396 22.379 19.7004 22.2224L19.2693 21.229C19.1492 21.2807 19.0146 21.2872 18.8901 21.2474L18.5597 22.2798ZM17.6367 21.671C17.8143 21.8162 17.9671 21.9418 18.1014 22.0372C18.2401 22.1357 18.3863 22.2246 18.5597 22.2798L18.8901 21.2474C18.8323 21.225 18.7782 21.194 18.7297 21.1553C18.5912 21.0518 18.4557 20.9441 18.3235 20.8325L17.6367 21.671ZM16.5663 20.8997C16.5858 20.9018 16.6617 20.9213 16.8545 21.0557C17.0441 21.1868 17.2846 21.3828 17.6367 21.671L18.3235 20.8325C17.9844 20.5563 17.706 20.3277 17.4731 20.1652C17.2456 20.007 16.9943 19.864 16.7104 19.8261L16.5663 20.8997ZM16.0637 21.1077C16.1217 21.0317 16.1987 20.9725 16.287 20.936C16.3753 20.8995 16.4716 20.8869 16.5663 20.8997L16.7104 19.8261C16.4264 19.7879 16.1372 19.8255 15.8724 19.935C15.6076 20.0446 15.3764 20.2223 15.2024 20.4501L16.0637 21.1077ZM15.8524 22.4109C15.8979 21.957 15.9283 21.6493 15.9694 21.4218C16.0117 21.19 16.0507 21.1239 16.0637 21.1077L15.2024 20.4501C15.0291 20.6776 14.9533 20.9571 14.9034 21.2301C14.8536 21.5085 14.8168 21.8671 14.7734 22.3026L15.8524 22.4109ZM15.6293 23.4943C15.7127 23.3318 15.7538 23.166 15.782 22.9981C15.8102 22.8356 15.8297 22.6384 15.8524 22.4109L14.7734 22.3026C14.7584 22.4754 14.7392 22.6477 14.7138 22.8193C14.707 22.8806 14.6909 22.9405 14.6662 22.997L15.6293 23.4943ZM14.7832 24.2602C15.1485 24.1156 15.4491 23.8435 15.6293 23.4943L14.6662 22.997C14.6063 23.1135 14.5062 23.2043 14.3845 23.2527L14.7832 24.2602ZM13.6836 24.3739C13.9122 24.3739 14.1104 24.3739 14.2751 24.3631C14.4441 24.3523 14.6142 24.3273 14.7832 24.2602L14.3845 23.2527C14.3257 23.2715 14.2643 23.2814 14.2025 23.2819C14.0833 23.2906 13.9263 23.2906 13.6825 23.2906L13.6836 24.3739ZM12.3142 24.3739H13.6836L13.6825 23.2906H12.3142V24.3739ZM11.2147 24.2602C11.3848 24.3273 11.5538 24.3523 11.7238 24.3631C11.8874 24.3739 12.0857 24.3739 12.3142 24.3739V23.2906C12.0716 23.2906 11.9156 23.2906 11.7953 23.2819C11.7335 23.2814 11.6722 23.2715 11.6133 23.2527L11.2147 24.2602ZM10.3686 23.4943C10.5487 23.8435 10.8493 24.1156 11.2147 24.2602L11.6133 23.2527C11.4916 23.2043 11.3916 23.1135 11.3317 22.997L10.3686 23.4943ZM10.1454 22.4109C10.1682 22.6384 10.1888 22.8367 10.2148 22.9981C10.2429 23.166 10.2852 23.3318 10.3686 23.4943L11.3317 22.997C11.307 22.9405 11.2909 22.8806 11.284 22.8193C11.2586 22.6481 11.2384 22.4761 11.2233 22.3037L10.1454 22.4109ZM9.93417 21.1077C9.94717 21.1239 9.98617 21.19 10.0284 21.4218C10.0696 21.6493 10.0999 21.9581 10.1454 22.4109L11.2233 22.3037C11.18 21.8693 11.1443 21.5096 11.0944 21.2301C11.0457 20.9571 10.9698 20.6787 10.7954 20.4501L9.93417 21.1077ZM9.4315 20.8997C9.52619 20.8869 9.62256 20.8995 9.71084 20.936C9.79912 20.9725 9.87617 21.0317 9.93417 21.1077L10.7954 20.4501C10.6215 20.2221 10.3905 20.0453 10.1256 19.9355C9.86075 19.8257 9.57158 19.788 9.28742 19.8261L9.4315 20.8997ZM8.36117 21.6721C8.71325 21.3828 8.95375 21.1868 9.14333 21.0557C9.33725 20.9213 9.412 20.9018 9.4315 20.8997L9.28742 19.8261C9.00358 19.864 8.75333 20.007 8.52475 20.1663C8.29183 20.3277 8.01342 20.5563 7.67433 20.8336L8.36117 21.6721ZM7.43817 22.2798C7.6115 22.2246 7.75775 22.1368 7.89642 22.0383C8.03075 21.9429 8.1835 21.8173 8.36117 21.6721L7.67433 20.8336C7.54214 20.9448 7.40666 21.0521 7.26808 21.1553C7.21963 21.194 7.16556 21.225 7.10775 21.2474L7.43817 22.2798ZM6.29742 22.2246C6.65832 22.3808 7.06363 22.3997 7.43817 22.2798L7.10775 21.2474C6.98328 21.2872 6.84861 21.2807 6.72858 21.229L6.29742 22.2246ZM5.43942 21.5258C5.60192 21.6883 5.74167 21.8292 5.86517 21.9375C5.993 22.0491 6.13058 22.152 6.29742 22.2246L6.72858 21.229C6.67318 21.2008 6.6224 21.1642 6.578 21.1207C6.45024 21.0041 6.32597 20.8838 6.20533 20.7599L5.43942 21.5258ZM4.472 20.5584L5.43942 21.5258L6.20533 20.7599L5.23792 19.7925L4.472 20.5584ZM3.77433 19.7004C3.84692 19.8673 3.94875 20.0038 4.06142 20.1327C4.16975 20.2562 4.31058 20.3959 4.472 20.5584L5.23792 19.7925C5.11364 19.6719 4.99298 19.5476 4.87608 19.4198C4.83256 19.3754 4.79603 19.3246 4.76775 19.2693L3.77433 19.7004ZM3.718 18.5597C3.59813 18.9342 3.61814 19.3395 3.77433 19.7004L4.76775 19.2693C4.71572 19.1494 4.70988 19.0147 4.74933 18.8901L3.718 18.5597ZM4.32575 17.6367C4.18058 17.8143 4.05492 17.9671 3.95958 18.1014C3.85551 18.2405 3.77398 18.3952 3.718 18.5597L4.74933 18.8901C4.77208 18.8322 4.8035 18.7782 4.8425 18.7297C4.91183 18.6322 5.01042 18.5109 5.16425 18.3235L4.32575 17.6367ZM5.09817 16.5663C5.09492 16.5858 5.0765 16.6606 4.94217 16.8545C4.81 17.0441 4.615 17.2846 4.32575 17.6367L5.16425 18.3235C5.44158 17.9844 5.67017 17.706 5.83158 17.4731C5.99083 17.2456 6.13383 16.9943 6.17175 16.7104L5.09817 16.5663ZM4.89017 16.0637C4.96609 16.1217 5.02532 16.1987 5.06185 16.287C5.09838 16.3753 5.11091 16.4716 5.09817 16.5663L6.17175 16.7104C6.20985 16.4263 6.17209 16.1371 6.06231 15.8722C5.95253 15.6074 5.77463 15.3763 5.54667 15.2024L4.89017 16.0637ZM3.58692 15.8535C4.04083 15.8979 4.3485 15.9283 4.576 15.9694C4.80783 16.0117 4.87392 16.0507 4.89017 16.0637L5.54667 15.2013C5.31917 15.028 5.04075 14.9522 4.76667 14.9034C4.48825 14.8536 4.12967 14.8168 3.69417 14.7734L3.58692 15.8535ZM2.50358 15.6293C2.66608 15.7127 2.83183 15.7538 2.99975 15.782C3.16225 15.8102 3.35833 15.8307 3.58692 15.8535L3.69525 14.7745C3.52243 14.7595 3.3501 14.7392 3.1785 14.7138C3.11722 14.7069 3.05733 14.6909 3.00083 14.6662L2.50358 15.6293ZM1.73767 14.7821C1.88206 15.1478 2.15419 15.4488 2.50358 15.6293L3.00083 14.6662C2.88436 14.6063 2.79353 14.5062 2.74517 14.3845L1.73767 14.7821ZM1.625 13.6858C1.625 13.9143 1.625 14.1126 1.63583 14.2773C1.64284 14.4507 1.67759 14.6218 1.73875 14.7843L2.74625 14.3867C2.72742 14.3278 2.71756 14.2665 2.717 14.2047C2.70895 14.0315 2.70606 13.858 2.70833 13.6847L1.625 13.6858ZM1.625 12.3164V13.6858H2.70833V12.3164H1.625ZM1.73875 11.2168C1.67783 11.3801 1.64309 11.5519 1.63583 11.726C1.625 11.8896 1.625 12.0878 1.625 12.3164H2.70833C2.70833 12.0738 2.70833 11.9178 2.717 11.7975C2.71752 11.7357 2.72738 11.6743 2.74625 11.6155L1.73875 11.2168ZM2.50467 10.3707C2.15546 10.5509 1.88337 10.8515 1.73875 11.2168L2.74625 11.6155C2.79462 11.4938 2.88544 11.3937 3.00192 11.3338L2.50467 10.3707ZM3.588 10.1465C3.3605 10.1693 3.16225 10.1909 3.00083 10.2169C2.82837 10.2417 2.66091 10.2936 2.50467 10.3707L3.00192 11.3338C3.02358 11.323 3.06692 11.3046 3.17958 11.2862C3.29875 11.2656 3.45367 11.2504 3.69525 11.2255L3.588 10.1465ZM4.89125 9.93633C4.875 9.94933 4.80892 9.98833 4.57708 10.0306C4.34958 10.0718 4.04192 10.101 3.588 10.1465L3.69525 11.2255C4.12967 11.1822 4.49042 11.1464 4.76883 11.0966C5.04292 11.0478 5.32133 10.972 5.54883 10.7976L4.89125 9.93633ZM5.09925 9.43367C5.11199 9.52835 5.09946 9.62472 5.06293 9.71301C5.0264 9.80129 4.96717 9.87833 4.89125 9.93633L5.54883 10.7976C5.7766 10.6236 5.95428 10.3924 6.06387 10.1276C6.17346 9.86276 6.21105 9.57256 6.17283 9.2885L5.09925 9.43367ZM4.32683 8.36225C4.61608 8.71542 4.81217 8.95592 4.94433 9.1455C5.07867 9.33942 5.096 9.41417 5.09925 9.43367L6.17283 9.2885C6.13492 9.00467 5.99192 8.7555 5.83267 8.52692C5.67125 8.294 5.44267 8.01558 5.16533 7.6765L4.32683 8.36225ZM3.71908 7.43925C3.77325 7.61258 3.86208 7.75992 3.96067 7.89858C4.056 8.03183 4.18167 8.18567 4.32683 8.36225L5.16533 7.6765C5.05407 7.54394 4.94677 7.40811 4.84358 7.26917C4.80467 7.22109 4.77326 7.1674 4.75042 7.10992L3.71908 7.43925ZM3.77542 6.29958C3.61949 6.66017 3.59948 7.06504 3.71908 7.43925L4.75042 7.10992C4.71096 6.98531 4.71788 6.85065 4.76992 6.73075L3.77542 6.29958ZM4.47308 5.44158C4.31058 5.603 4.16975 5.74275 4.06142 5.86733C3.94394 5.99547 3.84741 6.14135 3.77542 6.29958L4.76992 6.73075C4.79828 6.67573 4.8348 6.62425 4.87825 6.58017C4.99431 6.45195 5.11462 6.32766 5.239 6.2075L4.47308 5.44158ZM5.4405 4.47308L4.47308 5.44158L5.239 6.2075L6.20642 5.239L5.4405 4.47308ZM6.2985 3.7765C6.14031 3.84858 5.99444 3.94509 5.86625 4.0625C5.74275 4.17083 5.60192 4.31058 5.4405 4.47308L6.20642 5.239C6.37867 5.06783 6.48917 4.95733 6.57908 4.87825C6.66575 4.80242 6.70692 4.78075 6.72967 4.76992L6.2985 3.7765ZM7.43925 3.71908C7.06458 3.59955 6.65927 3.61995 6.2985 3.7765L6.72967 4.76992C6.84956 4.71788 6.98423 4.71204 7.10883 4.7515L7.43925 3.71908ZM8.36225 4.32792C8.18458 4.18275 8.03183 4.05708 7.8975 3.96175C7.75848 3.85724 7.60382 3.77535 7.43925 3.71908L7.10883 4.7515C7.16663 4.77391 7.22068 4.80496 7.26917 4.84358C7.36667 4.914 7.488 5.01258 7.6765 5.16642L8.36225 4.32792ZM9.43258 5.10033C9.41308 5.09708 9.33833 5.07867 9.14442 4.94433C8.87667 4.74756 8.61579 4.54268 8.36225 4.32792L7.6765 5.16642C8.0145 5.44375 8.294 5.67233 8.52583 5.83375C8.75333 5.99192 9.00467 6.13492 9.2885 6.17392L9.43258 5.10033ZM9.93525 4.89125C9.87737 4.96737 9.80038 5.02681 9.71209 5.06353C9.6238 5.10026 9.52737 5.11295 9.43258 5.10033L9.2885 6.17392C9.57273 6.21234 9.86207 6.17376 10.1271 6.06416C10.3922 5.95457 10.6235 5.77677 10.7976 5.54883L9.93525 4.89125ZM10.1465 3.58908C10.101 4.04192 10.0707 4.35067 10.0295 4.57708C9.98725 4.80892 9.94825 4.875 9.93525 4.89125L10.7976 5.54883C10.9709 5.32133 11.0468 5.04292 11.0955 4.76883C11.1453 4.49042 11.1822 4.13183 11.2255 3.69633L10.1465 3.58908ZM10.3697 2.50575C10.2863 2.66825 10.244 2.834 10.2158 3.00192C10.1888 3.16442 10.1693 3.3605 10.1465 3.58908L11.2244 3.69742C11.2394 3.5246 11.2597 3.35227 11.2851 3.18067C11.2919 3.11938 11.308 3.05948 11.3328 3.003L10.3697 2.50575ZM11.2168 1.73983C10.8509 1.8845 10.5499 2.15594 10.3697 2.50575L11.3328 3.003C11.3926 2.88653 11.4927 2.7957 11.6144 2.74733L11.2168 1.73983ZM12.3153 1.62608C12.0868 1.62608 11.8885 1.62608 11.7238 1.63692C11.5504 1.64393 11.3793 1.67867 11.2168 1.73983L11.6144 2.74733C11.6733 2.72847 11.7346 2.71861 11.7964 2.71808C11.9156 2.70942 12.0727 2.70942 12.3164 2.70942L12.3153 1.62608ZM13.6847 1.62608H12.3153V2.70942H13.6847V1.62608ZM14.7843 1.73983C14.621 1.67889 14.4492 1.64416 14.2751 1.63692C14.1115 1.62608 13.9132 1.62608 13.6847 1.62608V2.70942C13.9273 2.70942 14.0833 2.70942 14.2036 2.71808C14.2653 2.71896 14.3267 2.72881 14.3856 2.74733L14.7843 1.73983ZM15.6303 2.50575C15.4499 2.15635 15.1489 1.88423 14.7832 1.73983L14.3856 2.74733C14.5073 2.7957 14.6074 2.88653 14.6672 3.003L15.6303 2.50575ZM16.7917 13C16.7917 14.0056 16.3922 14.97 15.6811 15.6811C14.97 16.3922 14.0056 16.7917 13 16.7917V17.875C14.2929 17.875 15.5329 17.3614 16.4471 16.4471C17.3614 15.5329 17.875 14.2929 17.875 13H16.7917ZM13 9.20833C14.0056 9.20833 14.97 9.60781 15.6811 10.3189C16.3922 11.03 16.7917 11.9944 16.7917 13H17.875C17.875 11.7071 17.3614 10.4671 16.4471 9.55286C15.5329 8.63862 14.2929 8.125 13 8.125V9.20833ZM9.20833 13C9.20833 11.9944 9.60781 11.03 10.3189 10.3189C11.03 9.60781 11.9944 9.20833 13 9.20833V8.125C11.7071 8.125 10.4671 8.63862 9.55286 9.55286C8.63862 10.4671 8.125 11.7071 8.125 13H9.20833ZM13 16.7917C11.9944 16.7917 11.03 16.3922 10.3189 15.6811C9.60781 14.97 9.20833 14.0056 9.20833 13H8.125C8.125 14.2929 8.63862 15.5329 9.55286 16.4471C10.4671 17.3614 11.7071 17.875 13 17.875V16.7917Z" fill="black"/>
</svg>
