<svg width="23" height="23" viewBox="0 0 23 23" fill="none" xmlns="http://www.w3.org/2000/svg">
<path d="M5.7498 4.60001C4.83481 4.60001 3.95729 4.96349 3.31029 5.61049C2.66329 6.25749 2.2998 7.13501 2.2998 8.05001V14.95C2.2998 15.865 2.66329 16.7425 3.31029 17.3895C3.95729 18.0365 4.83481 18.4 5.7498 18.4H11.4998C12.4148 18.4 13.2923 18.0365 13.9393 17.3895C14.5863 16.7425 14.9498 15.865 14.9498 14.95V14.5809L18.4424 16.9924C18.6581 17.1413 18.9105 17.2284 19.1722 17.2442C19.4339 17.26 19.6949 17.2039 19.9271 17.0821C20.1592 16.9602 20.3536 16.7772 20.4891 16.5528C20.6247 16.3284 20.6964 16.0712 20.6964 15.8091V7.18981C20.6962 6.92773 20.6244 6.67069 20.4887 6.44648C20.353 6.22227 20.1586 6.03941 19.9265 5.91768C19.6945 5.79596 19.4335 5.73999 19.1719 5.75584C18.9103 5.77169 18.658 5.85875 18.4424 6.00761L14.9498 8.41801V8.05001C14.9498 7.13501 14.5863 6.25749 13.9393 5.61049C13.2923 4.96349 12.4148 4.60001 11.4998 4.60001H5.7498ZM14.9498 9.81641L19.0956 6.95291C19.1387 6.92311 19.1892 6.9057 19.2416 6.90255C19.2939 6.89939 19.3462 6.91063 19.3926 6.93503C19.439 6.95943 19.4779 6.99607 19.505 7.04098C19.5321 7.08589 19.5464 7.13735 19.5464 7.18981V15.8091C19.5464 15.8615 19.5321 15.913 19.505 15.9579C19.4779 16.0028 19.439 16.0394 19.3926 16.0638C19.3462 16.0882 19.2939 16.0995 19.2416 16.0963C19.1892 16.0932 19.1387 16.0757 19.0956 16.046L14.9498 13.1825V9.81641ZM3.4498 8.05001C3.4498 7.44001 3.69213 6.85499 4.12346 6.42366C4.55479 5.99233 5.13981 5.75001 5.7498 5.75001H11.4998C12.1098 5.75001 12.6948 5.99233 13.1261 6.42366C13.5575 6.85499 13.7998 7.44001 13.7998 8.05001V14.95C13.7998 15.56 13.5575 16.145 13.1261 16.5764C12.6948 17.0077 12.1098 17.25 11.4998 17.25H5.7498C5.13981 17.25 4.55479 17.0077 4.12346 16.5764C3.69213 16.145 3.4498 15.56 3.4498 14.95V8.05001Z" fill="#575757"/>
</svg>
